<svg version="1" xmlns="http://www.w3.org/2000/svg" width="1280" height="1280" viewBox="0 0 960.000000 960.000000"><path d="M338.3 33.7c-.3 1-6 15.7-12.6 32.8-6.5 17-15.7 40.9-20.4 53-4.6 12.1-11.1 28.7-14.3 37-6.1 15.4-11.9 30.5-26.7 69-4.6 12.1-9.9 25.8-11.8 30.5-3.1 7.8-6.6 16.9-13.2 34-1.4 3.6-3.1 7.8-3.8 9.5-.7 1.6-4 10.2-7.4 19-5.7 15.1-8.7 23-16.7 44-1.9 4.9-3.9 9.9-4.4 11-.5 1.1-3.4 8.5-6.4 16.5-3 8-7.8 20.3-10.6 27.5-17.5 44.5-28.8 75.7-31.6 87-1.3 5.5-3.1 12.5-4 15.5-.8 3-1.7 6.6-1.9 8-.8 5.4-3.7 24.6-4.1 27-.6 4.7-1.9 30.5-1.9 39.5 0 9.5 1.2 32.6 1.9 36 .4 2 2 13 3.1 21 .7 5.4 1.1 7.2 2.5 12.5.7 2.5 1.4 5.6 1.6 7 .3 1.4.9 3.6 1.4 5 .4 1.4 1.4 5 2 8 .6 3 1.8 7.1 2.5 9 .8 1.9 3.3 8.9 5.6 15.5 3.8 11 5.9 15.9 14.7 34.5 1.7 3.6 6.3 11.9 10.3 18.5 4 6.6 7.7 12.9 8.3 14 1.2 2.3 10.5 15.2 17.4 24.3 8.7 11.4 24.5 28.1 40.2 42.6 10.2 9.4 35.5 28.5 46 34.5 4.1 2.4 9.9 5.9 12.7 7.7 2.9 1.9 5.5 3.4 5.7 3.4.3 0 6.9 3.1 14.8 6.8 18 8.6 17.5 8.4 34.3 14.3 20.9 7.2 43.5 12.6 65 15.4 1.7.3 6.8 1 11.5 1.6 9.5 1.2 50.7 1.6 61.5.5 3.9-.4 9.9-1.1 13.5-1.7 3.6-.5 9.9-1.4 14-2 10.3-1.4 40.4-9.1 52.5-13.5 5.5-1.9 13.1-4.6 16.9-6 3.8-1.3 7.4-2.8 8-3.2.6-.5 6.3-3.3 12.6-6.3s18.4-9.6 27-14.7c40.1-24.3 71.7-53.6 101.2-94.1 1.4-2 4.8-7.2 7.4-11.6 2.6-4.4 6.4-10.5 8.4-13.5 3.2-4.8 14-26.1 14-27.5 0-.3 1.1-2.8 2.5-5.5 4.4-8.7 12.9-32.8 16.9-48 4.1-15.7 5.5-23.9 6-36 .3-6.3 1-16 1.6-21.5 3.2-33.3-1.6-75.8-12.7-111.5-6.7-21.8-5.4-18.7-77.6-176.5-11.8-25.9-41.8-91.6-66.7-146-24.9-54.5-45.3-99.1-45.5-99.3-.1-.2-2.3 2.5-4.7 6-2.5 3.5-20.1 28.6-39.3 55.8-38.2 54.2-55.5 78.7-59.2 83.8l-2.4 3.2-7.7-9.7c-4.2-5.4-11.5-14.5-16.2-20.3-4.7-5.8-12-15-16.3-20.5-4.3-5.5-8.8-11.2-10-12.6-1.2-1.4-3.3-4.1-4.7-6-1.4-1.8-3.9-4.9-5.6-6.9-1.7-1.9-4.1-5.1-5.4-7-1.4-1.9-3-4.1-3.7-4.8-1.6-1.7-5-6-23.8-29.7-8.6-11-17-21.6-18.6-23.5-1.6-1.9-5.5-6.9-8.7-11-3.1-4.1-5.9-7.7-6.2-8-1.5-1.3-22.4-27.7-32.3-40.7-3.4-4.5-5.4-5.3-6.4-2.6z"/></svg>