<svg version="1" xmlns="http://www.w3.org/2000/svg" width="1360" height="1360" viewBox="0 0 1020.000000 1020.000000"><path d="M368.3 63.7c-.3 1-6 15.7-12.6 32.8-6.5 17-15.7 40.9-20.4 53-4.6 12.1-11.1 28.7-14.3 37-6.1 15.4-11.9 30.5-26.7 69-4.6 12.1-9.9 25.8-11.8 30.5-3.1 7.8-6.6 16.9-13.2 34-1.4 3.6-3.1 7.8-3.8 9.5-.7 1.6-4 10.2-7.3 19-3.4 8.8-9.5 24.8-13.7 35.5-4.2 10.7-10.2 26.5-13.5 35-3.2 8.5-8.2 21.3-11 28.5-19 48.2-28.8 75.6-33.1 92.5-2.2 8.5-4.2 16.6-4.4 18-.4 2.6-3.5 22.8-4.1 27-.6 4.7-1.9 30.5-1.9 39.5 0 9.4 1.2 32.2 1.9 36.5.7 4.2 2.5 16.3 3.1 20.5.7 5.4 1.1 7.2 2.5 12.5.7 2.5 1.4 5.6 1.6 7 .3 1.4.9 3.6 1.4 5 .4 1.4 1.4 5 2 8 .6 3 1.8 7.1 2.5 9 .8 1.9 3.3 8.9 5.6 15.5 3.8 11 5.9 15.9 14.7 34.5 1.7 3.6 6.3 11.9 10.3 18.5 4 6.6 7.7 12.9 8.3 14 1.2 2.3 10.5 15.2 17.4 24.3 8.7 11.4 24.5 28.1 40.2 42.6 10.2 9.4 35.5 28.5 46 34.5 4.1 2.4 9.9 5.9 12.7 7.7 2.9 1.9 5.5 3.4 5.7 3.4.3 0 6.9 3.1 14.8 6.8 18 8.6 17.5 8.4 34.3 14.3 20.9 7.2 43.5 12.6 65 15.4 1.7.3 6.8 1 11.5 1.6 9.5 1.2 50.7 1.6 61.5.5 3.9-.4 9.9-1.1 13.5-1.7 3.6-.5 9.9-1.4 14-2 10.3-1.4 40.4-9.1 52.5-13.5 5.5-1.9 13.1-4.6 16.9-6 3.8-1.3 7.4-2.8 8-3.2.6-.5 6.3-3.3 12.6-6.3s18.4-9.6 27-14.7c40.1-24.3 71.7-53.6 101.2-94.1 1.4-2 4.8-7.2 7.4-11.6 2.6-4.4 6.4-10.5 8.4-13.5 3.2-4.8 14-26.1 14-27.5 0-.3 1.1-2.8 2.5-5.5 4.4-8.7 12.9-32.8 16.9-48 3.9-15.1 5.4-23.8 6-34.5.3-5.5 1-14.5 1.6-20 1.4-15 1.2-41.7-.6-57.7-3.3-30.1-11.1-59.4-23.4-88.3-11-25.7-177.8-389.9-178.7-390.2-.4-.1-24.4 33.3-53.2 74.2l-52.3 74.4-7.7-9.7c-4.2-5.4-11.4-14.4-16.1-20.2-4.7-5.8-12-15-16.3-20.5-4.3-5.5-8.8-11.2-10-12.6-1.2-1.4-3.3-4.1-4.7-6-1.4-1.8-3.9-4.9-5.6-6.9-1.7-1.9-4.1-5.1-5.4-7-1.4-1.9-3-4.1-3.7-4.8-1.6-1.7-5-6-23.8-29.7-8.6-11-17-21.6-18.6-23.5-1.6-1.9-5.5-6.9-8.7-11-3.1-4.1-5.9-7.7-6.2-8-1.5-1.3-22.4-27.7-32.3-40.7-3.4-4.5-5.4-5.3-6.4-2.6zm144.2 344.6c9.4 11.6 42.9 53.1 74.6 92.2 154 190 149.9 184.9 149.3 187-2.6 8.8-9.6 26.9-14 35.8-12.2 24.8-26.2 44.5-45.2 63.5-36.3 36.3-79.8 58.4-131.7 66.8-15.5 2.6-52.4 2.6-68.5.1-51.6-8.1-96.1-30.7-132.4-67.1-35.8-35.9-58.4-81.2-66.2-132.6-2.4-16.1-2.5-48.1 0-65 15-103.6 94.4-184 197.6-200 6.3-1 13.3-1.8 15.5-1.8l4-.1 17 21.2z"/></svg>